HIERARCHY
ROOT SpineBase
{
  OFFSET 0.000000 0.000000 0.000000
  CHANNELS 6 Xposition Yposition Zposition Zrotation Xrotation Yrotation
  JOINT SpineMid
  {
    OFFSET 0.000000 29.538759 0.000000
    CHANNELS 3 Zrotation Xrotation Yrotation
    JOINT SpineShoulder
    {
      OFFSET -0.040023 21.965116 -0.817408
      CHANNELS 3 Zrotation Xrotation Yrotation
      JOINT Neck
      {
        OFFSET 0.009015 7.271415 -0.588285
        CHANNELS 3 Zrotation Xrotation Yrotation
        JOINT Head
        {
          OFFSET -4.098415 13.266017 -0.615012
          CHANNELS 3 Zrotation Xrotation Yrotation
          End Site
          {
            OFFSET 0 0 0
          }
        }
      }
      JOINT ShoulderLeft
      {
        OFFSET -16.236823 -4.562553 4.562316
        CHANNELS 3 Zrotation Xrotation Yrotation
        JOINT ElbowLeft
        {
          OFFSET -2.716398 -27.755085 4.483759
          CHANNELS 3 Zrotation Xrotation Yrotation
          JOINT WristLeft
          {
            OFFSET 0.185888 -20.793793 -3.541368
            CHANNELS 3 Zrotation Xrotation Yrotation
            JOINT HandLeft
            {
              OFFSET 0.600176 -3.542954 -0.618649
              CHANNELS 3 Zrotation Xrotation Yrotation
              JOINT HandTipLeft
              {
                OFFSET 1.002201 -5.201574 -1.241403
                CHANNELS 3 Zrotation Xrotation Yrotation
                End Site
                {
                  OFFSET 0 0 0
                }
              }
              JOINT ThumbLeft
              {
                OFFSET -2.141595 0.025936 -0.773785
                CHANNELS 3 Zrotation Xrotation Yrotation
                End Site
                {
                  OFFSET 0 0 0
                }
              }
            }
          }
        }
      }
      JOINT ShoulderRight
      {
        OFFSET 15.166961 -2.548048 -6.147000
        CHANNELS 3 Zrotation Xrotation Yrotation
        JOINT ElbowRight
        {
          OFFSET 6.088200 -24.550666 0.454072
          CHANNELS 3 Zrotation Xrotation Yrotation
          JOINT WristRight
          {
            OFFSET -2.166916 -20.248565 -6.015782
            CHANNELS 3 Zrotation Xrotation Yrotation
            JOINT HandRight
            {
              OFFSET -2.004391 -6.353799 -0.175945
              CHANNELS 3 Zrotation Xrotation Yrotation
              JOINT HandTipRight
              {
                OFFSET 0.110721 -5.909245 -0.580070
                CHANNELS 3 Zrotation Xrotation Yrotation
                End Site
                {
                  OFFSET 0 0 0
                }
              }
              JOINT ThumbRight
              {
                OFFSET 3.544243 -1.086341 -1.298884
                CHANNELS 3 Zrotation Xrotation Yrotation
                End Site
                {
                  OFFSET 0 0 0
                }
              }
            }
          }
        }
      }
    }
  }
  JOINT HipLeft
  {
    OFFSET -6.551816 0.408313 -1.412416
    CHANNELS 3 Zrotation Xrotation Yrotation
    JOINT KneeLeft
    {
      OFFSET 4.731992 -28.536246 4.426127
      CHANNELS 3 Zrotation Xrotation Yrotation
      JOINT AnkleLeft
      {
        OFFSET 4.415341 -32.404288 4.825707
        CHANNELS 3 Zrotation Xrotation Yrotation
        JOINT FootLeft
        {
          OFFSET -3.908206 -2.732675 -14.542117
          CHANNELS 3 Zrotation Xrotation Yrotation
          End Site
          {
            OFFSET 0 0 0
          }
        }
      }
    }
  }
  JOINT HipRight
  {
    OFFSET 7.299099 1.396801 -5.266247
    CHANNELS 3 Zrotation Xrotation Yrotation
    JOINT KneeRight
    {
      OFFSET 5.081653 -26.638324 3.956966
      CHANNELS 3 Zrotation Xrotation Yrotation
      JOINT AnkleRight
      {
        OFFSET 1.401121 -34.226036 7.590753
        CHANNELS 3 Zrotation Xrotation Yrotation
        JOINT FootRight
        {
          OFFSET -2.558469 -3.532737 -12.975363
          CHANNELS 3 Zrotation Xrotation Yrotation
          End Site
          {
            OFFSET 0 0 0
          }
        }
      }
    }
  }
}
MOTION
Frames: 13
Frame Time: 0.033333
-49.847952 80.243469 345.006350 11.803620 -12.790906 18.925384 2.183621 -1.013383 -17.318307 -0.255322 -0.903345 0.768764 -16.692375 31.241050 7.011574 0.000000 0.000000 0.000000 175.174718 28.038283 103.465773 8.155489 -10.357323 52.235021 -29.040646 20.271204 3.849253 20.827921 11.157548 63.304316 0.000000 0.000000 0.000000 0.000000 0.000000 0.000000 -158.734177 18.978177 149.073372 1.795781 -16.005998 -39.294409 -24.152565 7.401455 -68.203165 -34.955597 5.842844 95.236451 0.000000 0.000000 0.000000 0.000000 0.000000 0.000000 -4.159653 19.117221 -16.552393 0.095636 -1.630340 -0.306565 1.171955 -13.854714 -3.471097 0.000000 0.000000 0.000000 3.402996 12.888745 -17.573628 -1.568301 8.554739 0.019686 -7.442486 -24.119356 0.795984 0.000000 0.000000 0.000000
-49.753115 79.299032 345.653350 14.281879 -14.020313 19.947911 2.045295 -0.680277 -17.859360 -0.543942 -0.652870 0.861905 -20.894832 31.439437 7.931349 0.000000 0.000000 0.000000 173.130125 31.090139 112.749222 2.029019 -13.178153 38.880630 -30.330745 20.789592 5.089446 15.101371 6.087841 49.529138 0.000000 0.000000 0.000000 0.000000 0.000000 0.000000 -159.372196 18.505583 144.846600 3.206727 -17.434718 -35.828272 -22.044613 8.903993 -63.393699 -33.708899 13.652057 116.485623 0.000000 0.000000 0.000000 0.000000 0.000000 0.000000 -5.321448 21.756039 -16.881213 -0.472368 -2.364113 -0.530529 1.619025 -14.682827 -3.870041 0.000000 0.000000 0.000000 2.953494 14.234596 -18.254947 -1.987912 8.069860 0.005776 -7.762995 -26.991271 1.090223 0.000000 0.000000 0.000000
-49.156691 77.868769 346.393703 16.086297 -14.911994 21.418641 1.404655 -0.046534 -18.923070 -0.582745 -0.260781 0.855880 -19.976208 30.846918 7.064816 0.000000 0.000000 0.000000 175.297993 35.510503 113.610841 0.570242 -12.518543 34.806798 -34.836289 26.877123 9.575360 15.607952 1.000238 46.536343 0.000000 0.000000 0.000000 0.000000 0.000000 0.000000 -159.909100 20.078202 145.248970 0.400241 -21.005411 -38.590419 -25.342864 10.244356 -61.019928 -31.258485 11.408147 94.728650 0.000000 0.000000 0.000000 0.000000 0.000000 0.000000 -6.124329 24.463548 -17.761862 -0.064545 -3.544142 -0.618190 1.573123 -14.999692 -4.940568 0.000000 0.000000 0.000000 3.040489 15.103798 -19.502244 -2.453817 6.901780 0.029292 -8.559121 -24.579276 -0.445702 0.000000 0.000000 0.000000
-48.237255 76.011367 347.261566 17.496789 -15.764734 19.491392 1.009036 0.140731 -16.600568 -0.772736 -0.145765 0.898279 -17.900357 30.968098 5.969807 0.000000 0.000000 0.000000 177.712269 37.239907 110.812994 4.789423 -15.456106 34.515651 -42.546887 33.403116 16.167181 24.255051 -0.597101 57.817787 0.000000 0.000000 0.000000 0.000000 0.000000 0.000000 -159.721400 22.949600 145.222783 -1.189034 -20.809805 -38.951692 -17.286440 8.457781 -51.435023 -34.423902 11.550402 76.352879 0.000000 0.000000 0.000000 0.000000 0.000000 0.000000 -8.386069 25.858657 -15.000722 0.040102 -3.696083 -0.628435 1.887532 -15.520101 -6.494185 0.000000 0.000000 0.000000 2.174231 15.817368 -17.270786 -2.065165 6.716476 0.185118 -10.064817 -21.431719 -3.076912 0.000000 0.000000 0.000000
-47.025856 74.005313 348.140305 18.496368 -16.398688 16.931004 0.588215 0.178042 -13.706264 -1.172036 0.199693 0.902036 -14.819082 30.264865 4.483281 0.000000 0.000000 0.000000 -176.933235 42.166444 108.368083 8.627379 -16.289172 33.829914 -47.347338 34.729570 17.685958 26.537591 -1.396962 52.131508 0.000000 0.000000 0.000000 0.000000 0.000000 0.000000 -157.135130 27.610866 141.286558 0.189886 -20.946144 -34.684847 -8.607623 10.312919 -40.951700 -37.073890 12.617861 59.757414 0.000000 0.000000 0.000000 0.000000 0.000000 0.000000 -11.185378 26.639208 -11.534887 0.589419 -3.710369 -0.522135 2.121723 -15.910751 -8.029557 0.000000 0.000000 0.000000 1.099891 16.074041 -14.417431 -1.359165 6.807936 0.394531 -11.625124 -17.149649 -5.760736 0.000000 0.000000 0.000000
-45.932823 72.762597 348.924902 19.215266 -17.063570 12.618133 0.405615 0.232949 -9.130962 -0.923878 0.313138 0.896718 -12.334138 29.645646 3.060956 0.000000 0.000000 0.000000 -168.232834 48.229786 102.184850 10.754759 -15.165593 32.322209 -34.343199 27.692011 18.829573 17.475247 0.051086 29.775788 0.000000 0.000000 0.000000 0.000000 0.000000 0.000000 -152.497913 34.573021 134.066767 2.398108 -18.197786 -28.402552 -1.430316 10.167022 -32.955683 -35.058521 15.623587 49.331604 0.000000 0.000000 0.000000 0.000000 0.000000 0.000000 -14.570817 26.166047 -6.301670 0.934492 -3.150220 -0.378426 2.390843 -16.317514 -8.976963 0.000000 0.000000 0.000000 -0.520709 16.257039 -9.757961 -0.420842 7.288572 0.593439 -13.574201 -11.316253 -6.311472 0.000000 0.000000 0.000000
-44.787368 71.650128 349.516701 19.994128 -17.457951 7.982203 0.904082 0.224162 -4.343487 -1.470869 0.510585 0.962711 -8.950926 28.814922 1.394283 0.000000 0.000000 0.000000 -155.869434 57.876534 97.118227 9.584794 -14.842420 26.457487 -21.194155 22.802302 18.960573 7.453702 -1.691394 11.247146 0.000000 0.000000 0.000000 0.000000 0.000000 0.000000 -143.924972 43.698385 123.431498 2.555621 -17.525617 -23.875769 -0.502906 15.747957 -27.952937 -27.213558 14.650380 41.770775 0.000000 0.000000 0.000000 0.000000 0.000000 0.000000 -18.330055 24.946560 -0.830236 1.294464 -2.709839 -0.249091 2.826603 -16.713163 -9.038087 0.000000 0.000000 0.000000 -1.984266 16.582672 -4.770902 -0.198392 6.418868 0.719041 -13.984108 -10.451239 -8.254086 0.000000 0.000000 0.000000
-43.931033 70.251485 349.844969 20.230005 -17.553581 -2.512651 1.024401 0.616275 6.148941 -1.534152 0.597497 0.968209 -5.301575 25.090788 -0.630022 0.000000 0.000000 0.000000 -122.845130 67.746845 72.741193 7.350197 -10.861150 20.551529 -13.951703 18.984137 15.842178 -0.850728 -5.331137 0.938015 0.000000 0.000000 0.000000 0.000000 0.000000 0.000000 -131.844480 52.828191 111.431933 0.891325 -20.107645 -21.986861 -1.540774 22.822909 -23.813946 -18.895956 9.479968 32.829237 0.000000 0.000000 0.000000 0.000000 0.000000 0.000000 -22.640446 19.394874 9.554811 1.113780 -0.870616 -0.021595 3.226062 -16.844225 -8.431403 0.000000 0.000000 0.000000 -4.189146 17.726004 6.143695 -0.603602 3.197362 0.775269 -13.919463 -14.062361 -10.163980 0.000000 0.000000 0.000000
-43.084006 69.433715 349.830258 20.594038 -17.438534 -7.839572 1.007325 0.840653 11.494531 -1.425865 0.367959 1.013377 -3.704556 20.931787 -1.955120 0.000000 0.000000 0.000000 -63.030411 64.555740 23.538123 3.710432 -4.167369 13.237648 -17.238117 29.700517 18.762690 -4.085773 -20.872148 -7.362316 0.000000 0.000000 0.000000 0.000000 0.000000 0.000000 -118.862697 59.014418 98.983726 -0.706463 -32.365619 -21.816317 -4.410617 33.218674 -18.749935 -10.691629 5.947587 27.592023 0.000000 0.000000 0.000000 0.000000 0.000000 0.000000 -25.318913 15.755434 14.562999 1.845371 -0.051396 0.238519 3.520088 -16.835791 -7.253004 0.000000 0.000000 0.000000 -5.851314 18.004051 11.802044 -1.141959 0.523708 0.848200 -13.514080 -13.885076 -10.976263 0.000000 0.000000 0.000000
-42.272703 68.921412 349.613836 21.343016 -17.757858 -9.297089 0.488188 0.720083 13.225311 -1.380613 0.361622 1.024648 -4.201519 19.361281 -2.235257 0.000000 0.000000 0.000000 -30.135706 46.835779 2.807008 -1.030171 3.861457 5.782811 -21.493991 37.360518 20.220997 -8.001510 -28.636072 -12.249010 0.000000 0.000000 0.000000 0.000000 0.000000 0.000000 -97.025834 64.052886 78.686151 -1.712856 -49.984317 -20.682670 -11.989715 48.569496 -11.811019 -5.740850 1.494776 22.085814 0.000000 0.000000 0.000000 0.000000 0.000000 0.000000 -28.207817 14.579596 16.322160 3.420438 -0.464086 0.467736 3.422819 -15.479536 -5.257380 0.000000 0.000000 0.000000 -7.818177 18.500850 13.735778 -1.635873 -0.487424 0.701602 -11.943727 -17.847974 -12.012495 0.000000 0.000000 0.000000
-41.868639 68.456422 349.142403 22.773310 -18.016480 -7.979122 0.279123 0.497867 12.301497 -1.347796 0.182216 1.108699 -8.230864 18.435008 -1.725657 0.000000 0.000000 0.000000 -15.465683 33.283737 -1.472018 -5.842574 6.860913 0.202258 -23.970012 39.500211 19.385796 -6.003993 -29.861535 -10.614969 0.000000 0.000000 0.000000 0.000000 0.000000 0.000000 -65.525893 64.992446 48.862256 -0.140332 -62.040283 -15.412576 -14.750469 57.418000 -7.231338 -7.680414 -4.599355 14.229025 0.000000 0.000000 0.000000 0.000000 0.000000 0.000000 -30.483201 14.723613 15.627154 4.466939 -0.950367 0.588166 3.712914 -16.328713 -3.041340 0.000000 0.000000 0.000000 -9.415904 18.930853 12.935670 -2.213885 -0.128579 0.440574 -10.977297 -21.114988 -9.158173 0.000000 0.000000 0.000000
-41.038457 67.851534 348.775426 23.282458 -18.507711 -2.622331 -0.101779 0.105390 7.269457 -1.070483 -0.040478 1.138019 -6.673028 18.257311 -2.473052 0.000000 0.000000 0.000000 -8.118569 24.705556 -1.630714 -8.119046 7.292892 -2.689219 -21.978370 39.112596 16.569180 -7.406815 -24.999858 -8.657385 0.000000 0.000000 0.000000 0.000000 0.000000 0.000000 -32.372700 58.383652 19.486790 0.150638 -60.606028 -8.494355 -12.017661 53.894717 -6.221481 -13.415196 2.233606 9.621049 0.000000 0.000000 0.000000 0.000000 0.000000 0.000000 -31.695099 18.312458 11.665235 6.147336 -2.155136 0.747221 4.777099 -20.068116 -3.213750 0.000000 0.000000 0.000000 -10.323191 20.411957 8.006417 -2.647201 0.897539 0.027373 -7.859541 -26.384953 -10.455179 0.000000 0.000000 0.000000
-40.333278 67.242235 348.359990 22.912886 -19.094207 5.367460 -0.986447 -0.107110 -0.508601 -0.863461 -0.097102 1.079385 -2.120019 17.858420 -3.788246 0.000000 0.000000 0.000000 -1.792338 19.219324 -1.383380 -11.367201 8.426014 -4.165352 -16.023145 26.775118 9.791812 -1.146622 -21.486734 -4.605487 0.000000 0.000000 0.000000 0.000000 0.000000 0.000000 -12.033434 44.509363 3.613163 -1.249878 -50.287886 -2.961649 -2.200536 40.664672 -7.041975 -21.730332 14.701162 6.030312 0.000000 0.000000 0.000000 0.000000 0.000000 0.000000 -30.184531 24.036801 5.095258 7.546310 -3.423769 0.886805 5.422865 -23.353166 -3.124029 0.000000 0.000000 0.000000 -9.693008 22.549848 0.147507 -3.009740 2.401599 -0.354318 -4.352565 -29.845983 -9.816894 0.000000 0.000000 0.000000
